<?xml version="1.0" standalone="no"?>
<!DOCTYPE svg PUBLIC "-//W3C//DTD SVG 20010904//EN"
 "http://www.w3.org/TR/2001/REC-SVG-20010904/DTD/svg10.dtd">
<svg version="1.0" xmlns="http://www.w3.org/2000/svg"
 width="100.000000pt" height="100.000000pt" viewBox="0 0 100.000000 100.000000"
 preserveAspectRatio="xMidYMid meet">
<metadata>
Created by potrace 1.11, written by Peter Selinger 2001-2013
</metadata>
<g transform="translate(0.000000,100.000000) scale(0.100000,-0.100000)"
fill="#000000" stroke="none">
<path d="M363 881 c-105 -39 -180 -107 -231 -211 -25 -50 -27 -65 -27 -170 0
-110 1 -118 32 -176 44 -85 133 -165 220 -198 191 -73 409 12 506 198 31 58
32 66 32 176 0 107 -2 119 -29 175 -38 77 -115 153 -191 190 -80 39 -230 46
-312 16z"/>
</g>
</svg>
